# xmcd
#
# Track frame offsets:
# 150
# 19017
# 38771
# 57848
# 78046
# 101157
# 122043
# 141510
# 160446
# 174972
# 202927
# 220499
#
# Disc length: 3170 seconds
#
#
# Revision: 8
# Processed by: cddbd v1.5.1PL2 Copyright (c) Steve Scherf et al.
# Submitted via: FreeRIP 2.60 
#
DISCID=a10c600c
DTITLE=Hevia - The Other Side
DYEAR=2000
DGENRE=New Age
TTITLE0=Tanzila
TTITLE1=Fandangu Los Llobos
TTITLE2=El Salton
TTITLE3=Kyrie Eleison
TTITLE4=Mermuradora
TTITLE5=Banos De Budapest
TTITLE6=El Sitiu
TTITLE7=Rubiercos
TTITLE8=Son Del Busgosu
TTITLE9=Si Quieres Que Te Cortexe
TTITLE10=Marcha Del Dos De Mayo
TTITLE11=CancióN Oculta
EXTD=YEAR: 2000
EXTT0=
EXTT1=
EXTT2=
EXTT3=
EXTT4=
EXTT5=
EXTT6=
EXTT7=
EXTT8=
EXTT9=
EXTT10=
EXTT11=
PLAYORDER=
